Coordinates
version=1
nRows=14
nColumns=40
inDegrees=yes

Units are S.I. units (second, meters, Newtons, ...)
Angles are in degrees.

endheader
time	pelvis_tilt	pelvis_list	pelvis_rotation	pelvis_tx	pelvis_ty	pelvis_tz	hip_flexion_r	hip_adduction_r	hip_rotation_r	knee_angle_r	knee_angle_r_beta	ankle_angle_r	subtalar_angle_r	mtp_angle_r	hip_flexion_l	hip_adduction_l	hip_rotation_l	knee_angle_l	knee_angle_l_beta	ankle_angle_l	subtalar_angle_l	mtp_angle_l	lumbar_extension	lumbar_bending	lumbar_rotation	arm_flex_r	arm_add_r	arm_rot_r	elbow_flex_r	pro_sup_r	wrist_flex_r	wrist_dev_r	arm_flex_l	arm_add_l	arm_rot_l	elbow_flex_l	pro_sup_l	wrist_flex_l	wrist_dev_l
      1.86750000	     -6.58177250	     -6.13647720	      3.91043784	      1.05065959	      0.93117028	      0.50279148	     11.25419560	      4.79147666	    -16.57260090	     11.14567888	     11.14567888	      8.46302216	      3.86571627	     -3.29885938	     43.94520343	    -11.26225631	      5.43738325	     59.37005912	     59.37005912	      6.90841215	    -18.45012770	     12.62949443	    -12.57411186	      4.91023450	      4.03229391	     21.73597579	    -17.67257952	     -1.74076698	     61.93664024	     45.26902361	      0.00000000	      0.00000000	      1.78559540	     -6.97840296	     -4.24895989	     29.84796388	     46.96546777	      0.00000000	      0.00000000
      1.87900000	     -6.67455340	     -6.11529293	      4.00041798	      1.04885880	      0.93101124	      0.50298217	     10.70342214	      4.87545040	    -16.55463552	     10.74224325	     10.74224325	      8.72095997	      3.99473878	     -3.32916731	     44.43342294	    -11.07904109	      5.27362068	     56.27414049	     56.27414049	      7.06337300	    -18.41375077	     13.03985224	    -12.58546303	      4.79481591	      3.85960010	     24.12486933	    -17.78696036	     -1.85926973	     64.14604825	     45.21116002	      0.00000000	      0.00000000	      0.47139941	     -7.02906684	     -4.26806928	     28.47680751	     46.93839363	      0.00000000	      0.00000000
      1.89050000	     -6.87105739	     -6.14814059	      4.04317610	      1.04703902	      0.93057522	      0.50301971	     10.33468496	      4.97763583	    -16.53144957	     10.47377465	     10.47377465	      9.01260834	      4.09326273	     -3.41763830	     44.89158563	    -10.93286867	      5.16943747	     53.00502907	     53.00502907	      7.22128810	    -18.12464272	     13.39139886	    -12.41566558	      4.76305704	      4.26575574	     26.37056531	    -18.33332387	     -2.10318831	     65.59058809	     45.18274176	      0.00000000	      0.00000000	     -0.69930530	     -6.99579366	     -4.27909962	     27.72559908	     46.91659955	      0.00000000	      0.00000000
      1.90200000	     -6.87024025	     -6.17215832	      4.16074992	      1.04553954	      0.93042282	      0.50286141	      9.53903418	      5.09117969	    -16.85887741	      9.85286326	      9.85286326	      9.25324713	      4.86308806	     -3.49760618	     44.86720227	    -10.66578154	      5.28737712	     49.42582552	     49.42582552	      7.13036271	    -17.93909078	     13.06072392	    -12.53976205	      4.78639221	      4.25973737	     27.79694866	    -18.86111894	     -1.28663226	     70.28143274	     45.01559670	      0.00000000	      0.00000000	     -1.59648087	     -7.01338446	     -4.40116345	     25.83421455	     46.89921792	      0.00000000	      0.00000000
      1.91350000	     -6.90776445	     -6.13573642	      4.21299628	      1.04409018	      0.93018584	      0.50258041	      8.81480061	      5.15591372	    -16.82628588	      9.29795939	      9.29795939	      9.53699636	      5.16814252	     -3.53892373	     44.71665692	    -10.35648859	      5.40858652	     45.77611180	     45.77611180	      7.17050716	    -17.49066402	     13.35435227	    -12.54915223	      4.73387734	      4.27224188	     30.01116003	    -18.74028869	     -1.52904482	     72.29128382	     44.97098947	      0.00000000	      0.00000000	     -2.88320641	     -7.13221870	     -4.40821214	     25.13322332	     46.86998936	      0.00000000	      0.00000000
      1.92500000	     -7.02396831	     -6.22920874	      4.24115888	      1.04282047	      0.92958974	      0.50219155	      8.12889630	      5.34792717	    -16.95918076	      8.66634458	      8.66634458	      9.76345174	      5.69261725	     -3.60539426	     44.54372770	    -10.17198750	      5.63414347	     42.15623637	     42.15623637	      7.44205374	    -16.72685923	     13.45089843	    -12.40639650	      4.80928197	      4.30885443	     32.17930211	    -18.80825922	     -1.65725033	     74.50472346	     44.91602886	      0.00000000	      0.00000000	     -4.14624775	     -7.15070890	     -4.40295148	     24.67465132	     46.83744679	      0.00000000	      0.00000000
      1.93650000	     -7.07508183	     -6.40758494	      4.29059141	      1.04176471	      0.92890934	      0.50163781	      7.29428241	      5.61455746	    -17.42746321	      7.91905160	      7.91905160	      9.98991642	      6.80607822	     -3.78760842	     44.19839090	    -10.08526026	      5.90408028	     38.56846638	     38.56846638	      7.30699532	    -15.81295790	     12.69220156	    -12.39288181	      5.02677617	      4.68018579	     33.64903333	    -19.44929483	     -1.43082823	     78.39073136	     44.81296624	      0.00000000	      0.00000000	     -5.52401569	     -7.19360644	     -4.24722065	     25.07752374	     46.74007193	      0.00000000	      0.00000000
      1.94800000	     -7.09305341	     -6.51369076	      4.29411133	      1.04096592	      0.92821249	      0.50103499	      6.41737910	      5.84247516	    -17.44958260	      7.19322993	      7.19322993	     10.25033052	      7.30965920	     -3.85254265	     43.69573178	     -9.99255279	      6.05024925	     35.17237788	     35.17237788	      7.57028316	    -14.61930115	     13.02278562	    -12.27968243	      5.15597773	      4.72383468	     35.73192705	    -19.24576076	     -1.56840508	     80.27104231	     44.77110995	      0.00000000	      0.00000000	     -6.77206610	     -7.25233788	     -4.15438641	     24.73711447	     46.69137604	      0.00000000	      0.00000000
      1.95950000	     -7.07037399	     -6.73411664	      4.31836635	      1.04042105	      0.92734267	      0.50031805	      5.37895355	      6.21547813	    -17.65581451	      6.24912752	      6.24912752	     10.42224484	      8.15952598	     -3.91301684	     43.16211686	    -10.02980164	      6.17229463	     32.12995132	     32.12995132	      7.82912529	    -13.28433744	     13.36967966	    -12.22073519	      5.43832251	      4.67177076	     37.70098742	    -19.03268994	     -1.46995322	     82.80908807	     44.70363023	      0.00000000	      0.00000000	     -8.16278478	     -7.25122868	     -4.00321360	     24.82826024	     46.62107901	      0.00000000	      0.00000000
      1.97100000	     -7.21317725	     -7.01343825	      4.24558708	      1.03991163	      0.92602230	      0.49961906	      4.78340678	      6.56540790	    -17.61725343	      5.83836092	      5.83836092	     10.74883163	      8.52896130	     -4.05920469	     42.79808454	    -10.15006340	      6.20782278	     29.47778226	     29.47778226	      7.94490882	    -12.15585609	     13.79655763	    -11.82899347	      5.73900742	      5.09754931	     39.65392327	    -19.19644299	     -1.62987106	     84.11995969	     44.67774326	      0.00000000	      0.00000000	     -9.22704165	     -7.23577273	     -3.97019901	     24.69548951	     46.58966987	      0.00000000	      0.00000000
      1.98250000	     -7.00953757	     -7.13104562	      4.22492052	      1.04001392	      0.92518196	      0.49869633	      3.40439667	      6.85319155	    -17.75179768	      4.72557942	      4.72557942	     10.93452878	      9.56734632	     -4.06071073	     41.96042131	    -10.21051653	      5.83965661	     27.21870450	     27.21870450	      8.17064838	    -10.89175529	     14.30107973	    -11.94818631	      5.92035175	      4.84348394	     41.39395860	    -18.63341073	     -1.22563946	     87.17247140	     44.58402492	      0.00000000	      0.00000000	    -10.78077333	     -7.26295576	     -3.78254318	     25.15732414	     46.50629935	      0.00000000	      0.00000000
      1.99400000	     -7.15138717	     -7.46296616	      4.08767845	      1.03995042	      0.92352422	      0.49784503	      2.84448207	      7.22687422	    -17.62641189	      4.44720120	      4.44720120	     11.34946817	      9.89216521	     -4.21446227	     41.63932832	    -10.42593597	      5.56457391	     25.57830548	     25.57830548	      8.10591368	    -10.21677397	     14.68000007	    -11.51861971	      6.30567389	      5.30227392	     43.13953977	    -18.72654149	     -1.34031989	     88.34999059	     44.56024672	      0.00000000	      0.00000000	    -11.86387746	     -7.25348533	     -3.74781425	     25.08463433	     46.47453384	      0.00000000	      0.00000000
      2.00550000	     -6.95634092	     -7.59814357	      4.02247037	      1.04044610	      0.92236327	      0.49674489	      1.62165651	      7.45288663	    -17.82932023	      3.70323300	      3.70323300	     11.77176771	     10.96556035	     -3.97418017	     40.85697860	    -10.54556428	      4.80412197	     24.35776551	     24.35776551	      8.18421942	     -9.31922003	     15.13040315	    -11.62716516	      6.47777126	      5.30961535	     44.36417234	    -18.66101992	     -0.55501909	     92.20858180	     44.45671114	      0.00000000	      0.00000000	    -13.86440436	     -7.47064413	     -2.88683956	     27.57801900	     46.23785102	      0.00000000	      0.00000000
      2.01700000	     -6.92926257	     -7.77451347	      3.88322941	      1.04094312	      0.92087480	      0.49560937	      0.82031370	      7.64562946	    -17.62927066	      3.41451334	      3.41451334	     12.23451647	     11.26548579	     -3.96862813	     40.23712505	    -10.65552593	      4.12360694	     23.52897014	     23.52897014	      7.91508425	     -9.10491158	     15.28793524	    -11.38487483	      6.69479897	      5.25394378	     45.93903646	    -17.99889133	     -0.45468443	     93.82606708	     44.42165788	      0.00000000	      0.00000000	    -15.03202976	     -7.44032632	     -2.47219711	     27.54621649	     46.14200593	      0.00000000	      0.00000000
